{"title":"Hulk (2003)720p Bluray Rip[HIndi-Eng-Tamil]6CH-AC3 By !!!dip","uid":6910955,"size":1329596001,"categoryP":"video","categoryS":"hd___movies","magnet":"?xt=urn:btih:d5fae23a1c96bb1ff3a5ef638c70ac0190f28687&amp;dn=Hulk+%282003%29720p+Bluray+Rip%5BHIndi-Eng-Tamil%5D6CH-AC3+By+%21%21%21dip&amp;tr=udp%3A%2F%2Ftracker.openbittorrent.com%3A80&amp;tr=udp%3A%2F%2Fopen.demonii.com%3A1337&amp;tr=udp%3A%2F%2Ftracker.coppersurfer.tk%3A6969&amp;tr=udp%3A%2F%2Fexodus.desync.com%3A6969","seeders":1,"leechers":2,"uploader":"dipty","files":-1,"time":1324810074,"description":"                       =!DK GROUP HD BLURAY RELEAESEES!=\n \n===================================================================================\n\n\n               \t\n Hulk(2003)Extended Verson 720p Bluray Rip[HIndi-Eng-Tamil]6CH-AC3 By !!!dip\n\n\n===================================================================================\n\nStoryline:\n\nBruce Banner, a brilliant scientist with a cloudy past about his family, is involved in an accident in his laboratory causing him to become exposed to gamma radiation and Nanomeds (A tiny life-form that is supposed to heal wounds but has killed everything with which they have made contact). Confused and curious about his survival, Banner discovers that since the accident, whenever he becomes angry he transforms into a giant green monster destroying everything in sight in an act of fury. Bruce's mysterious past and the answer to why the radiation had this effect becomes revealed to him as his Birth Father David Banner intervenes with hopes to continue experimenting on him. Written by SÃƒÂ©amus Hanly \n\nCast:\n\nEric Bana\t ...\tBruce Banner\nJennifer Connelly...\tBetty Ross\nSam Elliott\t ...\tRoss\nJosh Lucas\t ...\tTalbot\nNick Nolte\t ...\tFather\nPaul Kersey\t ...\tYoung David Banner\nCara Buono\t ...\tEdith Banner\nTodd Tesen\t ...\tYoung Ross\nKevin Rankin\t ...\tHarper\nCelia Weston\t ...\tMrs. Krensler\nMike Erwin\t ...\tTeenage Bruce Banner\nLou Ferrigno\t ...\tSecurity Guard\nStan Lee\t ...\tSecurity Guard\nRegi Davis\t ...\tSecurity Guard\nCraig Damon\t ...\tSecurity Guard\n\n\nDirectors :Ang Lee\nWriters :Stan Lee (Marvel comic book character), Jack Kirby (Marvel comic book character)\nStars: Eric Bana, Jennifer Connelly and Sam Elliott\nGenre: Action | Sci-Fi\nLanguage:[English-Hindi-Tamil]\nFormat :Color, Dubbed,Widescreen\nRelease Date:20 June 2003 (USA)\nSUBTITLE:English\nEncoder:Deep Shikha\n\n\n\nVideo Specifications:\n\nVideo\nID                               : 1\nFormat                           : AVC\nFormat/Info                      : Advanced Video Codec\nFormat profile                   : &lt;a class=&quot;__cf_email__&quot; href=&quot;/cdn-cgi/l/email-protection&quot; data-cfemail=&quot;b2fadbd5daf2fe819c83&quot;&gt;[email&amp;#160;protected]&lt;/a&gt;&lt;script cf-hash='f9e31' type=&quot;text/javascript&quot;&gt;\n/* &lt;![CDATA[ */!function(){try{var t=&quot;currentScript&quot;in document?document.currentScript:function(){for(var t=document.getElementsByTagName(&quot;script&quot;),e=t.length;e--;)if(t[e].getAttribute(&quot;cf-hash&quot;))return t[e]}();if(t&amp;&amp;t.previousSibling){var e,r,n,i,c=t.previousSibling,a=c.getAttribute(&quot;data-cfemail&quot;);if(a){for(e=&quot;&quot;,r=parseInt(a.substr(0,2),16),n=2;a.length-n;n+=2)i=parseInt(a.substr(n,2),16)^r,e+=String.fromCharCode(i);e=document.createTextNode(e),c.parentNode.replaceChild(e,c)}}}catch(u){}}();/* ]]&gt; */&lt;/script&gt;\nFormat settings, CABAC           : Yes\nFormat settings, ReFrames        : 4 frames\nMuxing mode                      : Header stripping\nCodec ID                         : V_MPEG4/ISO/AVC\nDuration                         : 2h 12mn\nNominal bit rate                 : 759 Kbps\nWidth                            : 1 280 pixels\nHeight                           : 688 pixels\nDisplay aspect ratio             : 1.860\nFrame rate                       : 25.000 fps\nOriginal frame rate              : 23.976 fps\nColor space                      : YUV\nChroma subsampling               : 4:2:0\nBit depth                        : 8 bits\nScan type                        : Progressive\nBits/(Pixel*Frame)               : 0.034\nTitle                            : !!!dip\n\n\nAudio Specifications:\n\n\nAudio #1\nID                               : 2\nFormat                           : AC-3\nFormat/Info                      : Audio Coding 3\nMode extension                   : CM (complete main)\nMuxing mode                      : Header stripping\nCodec ID                         : A_AC3\nDuration                         : 2h 12mn\nBit rate mode                    : Constant\nBit rate                         : 128 Kbps\nChannel(s)                       : 2 channels\nChannel positions                : Front: L R\nSampling rate                    : 48.0 KHz\nBit depth                        : 16 bits\nCompression mode                 : Lossy\nStream size                      : 121 MiB (11%)\nTitle                            : !!!dip\nLanguage                         : English\n\nAudio #2\nID                               : 3\nFormat                           : AAC\nFormat/Info                      : Advanced Audio Codec\nFormat profile                   : LC\nCodec ID                         : A_AAC\nDuration                         : 2h 12mn\nChannel(s)                       : 6 channels\nChannel positions                : Front: L C R, Side: L R, LFE\nSampling rate                    : 48.0 KHz\nCompression mode                 : Lossy\nTitle                            : !!!dip\nLanguage                         : Hindi\n\nAudio\nID                               : 3\nFormat                           : AC-3\nFormat/Info                      : Audio Coding 3\nMode extension                   : CM (complete main)\nMuxing mode                      : Header stripping\nCodec ID                         : A_AC3\nDuration                         : 2h 12mn\nBit rate mode                    : Constant\nBit rate                         : 192 Kbps\nChannel(s)                       : 2 channels\nChannel positions                : Front: L R\nSampling rate                    : 48.0 KHz\nBit depth                        : 16 bits\nCompression mode                 : Lossy\nStream size                      : 182 MiB\nTitle                            : !!!dip\nLanguage                         : Tamil\n\n\nText\nID                               : 4\nFormat                           : UTF-8\nCodec ID                         : S_TEXT/UTF8\nCodec ID/Info                    : UTF-8 Plain Text\nTitle                            : !!!dip\nLanguage                         : English\n\n\n\n\n\nSAMPLE IMAGE:\n      &lt;a href=&quot;\nhttp://www.imagebam.com/image/e6ab6d166253879&quot; rel=&quot;nofollow&quot; target=&quot;_NEW&quot;&gt;\nhttp://www.imagebam.com/image/e6ab6d166253879&lt;/a&gt;\n &lt;a href=&quot;\nhttp://www.imagebam.com/image/767800166253892&quot; rel=&quot;nofollow&quot; target=&quot;_NEW&quot;&gt;\nhttp://www.imagebam.com/image/767800166253892&lt;/a&gt;\n &lt;a href=&quot;\nhttp://www.imagebam.com/image/636e9c166253910&quot; rel=&quot;nofollow&quot; target=&quot;_NEW&quot;&gt;\nhttp://www.imagebam.com/image/636e9c166253910&lt;/a&gt;\n &lt;a href=&quot;\nhttp://www.imagebam.com/image/d02249166253923&quot; rel=&quot;nofollow&quot; target=&quot;_NEW&quot;&gt;\nhttp://www.imagebam.com/image/d02249166253923&lt;/a&gt;\n &lt;a href=&quot;\nhttp://www.imagebam.com/image/dfe7f3166253937&quot; rel=&quot;nofollow&quot; target=&quot;_NEW&quot;&gt;\nhttp://www.imagebam.com/image/dfe7f3166253937&lt;/a&gt;\n &lt;a href=&quot;\nhttp://www.imagebam.com/image/62ebce166253951&quot; rel=&quot;nofollow&quot; target=&quot;_NEW&quot;&gt;\nhttp://www.imagebam.com/image/62ebce166253951&lt;/a&gt;\n\n\nVIDEO SAMPLE IS AVAILABLE","torrent":{"xt":"urn:btih:d5fae23a1c96bb1ff3a5ef638c70ac0190f28687","amp;dn":"Hulk+%282003%29720p+Bluray+Rip%5BHIndi-Eng-Tamil%5D6CH-AC3+By+%21%21%21dip","amp;tr":["udp%3A%2F%2Ftracker.openbittorrent.com%3A80","udp%3A%2F%2Fopen.demonii.com%3A1337","udp%3A%2F%2Ftracker.coppersurfer.tk%3A6969","udp%3A%2F%2Fexodus.desync.com%3A6969"],"infoHash":"d5fae23a1c96bb1ff3a5ef638c70ac0190f28687","infoHashBuffer":{"type":"Buffer","data":[213,250,226,58,28,150,187,31,243,165,239,99,140,112,172,1,144,242,134,135]},"announce":[],"urlList":[]}}